<?xml version="1.0" encoding="UTF-8"?>
<svg id="Graphic_elements_copy" data-name="Graphic elements copy" xmlns="http://www.w3.org/2000/svg" viewBox="0 0 1200 1200">
  <defs>
    <style>
      .cls-1 {
        fill: none;
        stroke-width: 6px;
      }

      .cls-1, .cls-2 {
        stroke: #26a69a;
        stroke-miterlimit: 10;
      }

      .cls-2 {
        fill: #26a69a;
      }
    </style>
  </defs>
  <g>
    <path class="cls-1" d="m514.65,554.09c.55.54,1.09,1.08,1.09,1.08,73.88,73.44,155.92,13.84,170.72,1.95"/>
    <line class="cls-1" x1="513.3" y1="576.48" x2="525.15" y2="563.96"/>
    <line class="cls-1" x1="543.96" y1="596.11" x2="550.93" y2="581.59"/>
    <line class="cls-1" x1="597.96" y1="606.93" x2="597.96" y2="591.37"/>
    <line class="cls-1" x1="645.07" y1="598.93" x2="639.3" y2="585.15"/>
    <line class="cls-1" x1="682.19" y1="577.59" x2="673.3" y2="565.59"/>
  </g>
  <g>
    <path class="cls-1" d="m517.59,687.82c-85.8-75.28-161.11-9.94-171.92-.98-.63.52-.67,1.47-.09,2.04.55.54,1.09,1.08,1.09,1.08,73.88,73.44,155.92,13.84,170.72,1.95,1.28-1.03,1.37-2.94.2-4.1,0,0,0,0,0,0Z"/>
    <ellipse class="cls-2" cx="431.79" cy="688.84" rx="32.01" ry="36.84"/>
  </g>
  <g>
    <path class="cls-1" d="m854.78,687.82c-85.8-75.28-161.11-9.94-171.92-.98-.63.52-.67,1.47-.09,2.04.55.54,1.09,1.08,1.09,1.08,73.88,73.44,155.92,13.84,170.72,1.95,1.28-1.03,1.37-2.94.2-4.1,0,0,0,0,0,0Z"/>
    <ellipse class="cls-2" cx="768.98" cy="688.84" rx="32.01" ry="36.84"/>
  </g>
</svg>