<?xml version="1.0" encoding="UTF-8"?>
<svg id="Graphic_elements" data-name="Graphic elements" xmlns="http://www.w3.org/2000/svg" viewBox="0 0 1200 1200">
  <defs>
    <style>
      .cls-1 {
        fill: none;
        stroke-width: 6px;
      }

      .cls-1, .cls-2 {
        stroke: #26a69a;
        stroke-miterlimit: 10;
      }

      .cls-2 {
        fill: #26a69a;
      }
    </style>
  </defs>
  <g>
    <path class="cls-1" d="m345.46,690.09c.55.54,1.09,1.08,1.09,1.08,73.88,73.44,155.92,13.84,170.72,1.95"/>
    <line class="cls-1" x1="344.11" y1="712.48" x2="355.96" y2="699.96"/>
    <line class="cls-1" x1="374.78" y1="732.11" x2="381.74" y2="717.59"/>
    <line class="cls-1" x1="428.78" y1="742.93" x2="428.78" y2="727.37"/>
    <line class="cls-1" x1="475.89" y1="734.93" x2="470.11" y2="721.15"/>
    <line class="cls-1" x1="513" y1="713.59" x2="504.11" y2="701.59"/>
  </g>
  <g>
    <path class="cls-1" d="m683.02,690.09c.55.54,1.09,1.08,1.09,1.08,73.88,73.44,155.92,13.84,170.72,1.95"/>
    <line class="cls-1" x1="681.67" y1="712.48" x2="693.52" y2="699.96"/>
    <line class="cls-1" x1="712.33" y1="732.11" x2="719.3" y2="717.59"/>
    <line class="cls-1" x1="766.33" y1="742.93" x2="766.33" y2="727.37"/>
    <line class="cls-1" x1="813.44" y1="734.93" x2="807.67" y2="721.15"/>
    <line class="cls-1" x1="850.56" y1="713.59" x2="841.67" y2="701.59"/>
  </g>
  <g>
    <path class="cls-1" d="m685.89,555.08c-85.8-75.28-161.11-9.94-171.92-.98-.63.52-.67,1.47-.09,2.04.55.54,1.09,1.08,1.09,1.08,73.88,73.44,155.92,13.84,170.72,1.95,1.28-1.03,1.37-2.94.2-4.1,0,0,0,0,0,0Z"/>
    <ellipse class="cls-2" cx="600.09" cy="556.09" rx="32.01" ry="36.84"/>
  </g>
</svg>